# xmcd CD database file
#
# Track frame offsets:
#	151
#	31437
#	52587
#	77261
#	96924
#	122709
#	154614
#	180390
#	196509
#	208431
#	232911
#	260211
#	287503
#	301838
#
# Disc length: 4399 seconds
#
# Revision: 0
# Processed by: cddbd v1.5.2PL0 Copyright (c) Steve Scherf et al.
# Submitted via: CDex 1.51
#
DISCID=ab112d0e
DTITLE=Cornbread Harris - CornBread Supreme Volume 1
DYEAR=2002
DGENRE=Blues
TTITLE0=Nursery Rhym'n
TTITLE1=Nothing Left
TTITLE2=Mary Lou Take 1
TTITLE3=Tell Me I'm Your Man
TTITLE4=Candy Man
TTITLE5=Deeper Blues
TTITLE6=Never Ending
TTITLE7=Chromosones
TTITLE8=Soma Holiday
TTITLE9=Good, Good, Good
TTITLE10=Velvet Curtain
TTITLE11=Put the World
TTITLE12=Tickle Boy
TTITLE13=Lesson
EXTD=YEAR: 2002
EXTT0=
EXTT1=
EXTT2=
EXTT3=
EXTT4=
EXTT5=
EXTT6=
EXTT7=
EXTT8=
EXTT9=
EXTT10=
EXTT11=
EXTT12=
EXTT13=
PLAYORDER=
